<?xml version="1.0" encoding="UTF-8"?>
<svg xmlns="http://www.w3.org/2000/svg" xmlns:xlink="http://www.w3.org/1999/xlink" viewBox="0 0 100 100" width="100px" height="100px">
<g id="surface27473831">
<path style=" stroke:none;fill-rule:nonzero;fill:rgb(90.588236%,29.803923%,23.529412%);fill-opacity:1;" d="M 29 15 L 34 31 L 34 41 L 38 41 L 38 31 L 43 15 L 39 15 L 36.125 25.375 L 35.875 25.375 L 33 15 Z M 48.644531 21.5 C 46.917969 21.5 45.554688 21.972656 44.535156 22.921875 C 43.511719 23.851562 43 25.121094 43 26.695312 L 43 35.308594 C 43 37.039062 43.496094 38.429688 44.488281 39.453125 C 45.492188 40.480469 46.808594 41 48.472656 41 C 50.199219 41 51.546875 40.503906 52.523438 39.503906 C 53.5 38.5 53.988281 37.128906 53.988281 35.378906 L 53.988281 26.816406 C 53.988281 25.253906 53.496094 23.976562 52.492188 22.988281 C 51.492188 21.996094 50.210938 21.5 48.644531 21.5 Z M 57 22 L 57 38.4375 C 57 39.851562 58.148438 41 59.5625 41 C 61.207031 41 62.917969 39.972656 64.003906 38.714844 L 64.003906 41 L 68.003906 41 L 68.003906 22 L 64 22 L 64 36.203125 C 63.359375 36.867188 62.535156 37.5 61.875 37.5 C 61.390625 37.5 61 37.109375 61 36.625 L 61 22 Z M 48.5 25 C 49.328125 25 50 25.671875 50 26.5 L 50 36 C 50 36.828125 49.328125 37.5 48.5 37.5 C 47.671875 37.5 47 36.828125 47 36 L 47 26.5 C 47 25.671875 47.671875 25 48.5 25 Z M 49.996094 44 C 45.996094 44 41.089844 44 36.875 44.066406 C 34.765625 44.097656 32.835938 44.144531 31.265625 44.214844 C 29.699219 44.289062 28.546875 44.371094 27.785156 44.535156 C 25.984375 44.925781 24.328125 45.777344 23.050781 47.050781 C 21.773438 48.328125 20.925781 49.988281 20.535156 51.789062 C 20.328125 52.742188 20.222656 54.386719 20.136719 56.621094 C 20.046875 58.859375 20 61.613281 20 64.5 C 20 67.386719 20.046875 70.140625 20.136719 72.375 C 20.222656 74.613281 20.328125 76.257812 20.535156 77.210938 C 20.925781 79.011719 21.777344 80.671875 23.050781 81.945312 C 24.328125 83.222656 25.984375 84.074219 27.785156 84.464844 C 28.546875 84.628906 29.699219 84.710938 31.265625 84.78125 C 32.835938 84.855469 34.765625 84.902344 36.875 84.933594 C 41.089844 85 46 85 49.996094 85 C 53.996094 85 58.910156 85 63.125 84.933594 C 65.234375 84.902344 67.164062 84.855469 68.734375 84.78125 C 70.300781 84.710938 71.453125 84.628906 72.210938 84.464844 C 74.011719 84.074219 75.671875 83.222656 76.949219 81.945312 C 78.222656 80.671875 79.074219 79.011719 79.464844 77.210938 C 79.671875 76.257812 79.777344 74.613281 79.863281 72.375 C 79.953125 70.140625 80 67.386719 80 64.5 L 80 63.5 L 79.980469 63.5 C 79.96875 61.015625 79.941406 58.574219 79.867188 56.621094 C 79.777344 54.386719 79.671875 52.742188 79.464844 51.789062 C 79.074219 49.988281 78.226562 48.332031 76.949219 47.054688 C 75.671875 45.777344 74.015625 44.925781 72.214844 44.535156 L 72.210938 44.535156 C 71.453125 44.375 70.296875 44.292969 68.734375 44.21875 C 67.164062 44.144531 65.234375 44.097656 63.125 44.0625 C 58.910156 44 53.996094 44 49.996094 44 Z M 49.996094 46 C 53.996094 46 58.902344 46 63.09375 46.066406 C 65.191406 46.097656 67.109375 46.144531 68.640625 46.214844 C 70.167969 46.285156 71.359375 46.398438 71.789062 46.492188 L 71.792969 46.492188 C 73.253906 46.808594 74.554688 47.492188 75.535156 48.46875 C 76.511719 49.449219 77.195312 50.753906 77.511719 52.210938 C 77.632812 52.777344 77.78125 54.503906 77.867188 56.699219 C 77.953125 58.898438 78 61.636719 78 64.5 L 78 64.613281 C 77.996094 67.433594 77.953125 70.132812 77.867188 72.296875 C 77.78125 74.496094 77.632812 76.226562 77.511719 76.789062 C 77.195312 78.25 76.511719 79.554688 75.535156 80.53125 C 74.554688 81.511719 73.25 82.195312 71.789062 82.507812 C 71.359375 82.601562 70.167969 82.714844 68.640625 82.785156 C 67.109375 82.855469 65.191406 82.902344 63.09375 82.933594 C 58.902344 83 53.996094 83 49.996094 83 C 46 83 41.097656 83 36.90625 82.933594 C 34.8125 82.902344 32.890625 82.855469 31.359375 82.785156 C 29.832031 82.714844 28.640625 82.601562 28.210938 82.507812 L 28.207031 82.507812 C 26.746094 82.195312 25.445312 81.511719 24.464844 80.53125 C 23.488281 79.554688 22.804688 78.25 22.488281 76.789062 C 22.367188 76.226562 22.21875 74.496094 22.132812 72.296875 C 22.046875 70.101562 22 67.363281 22 64.5 C 22 61.636719 22.046875 58.898438 22.132812 56.699219 C 22.21875 54.503906 22.367188 52.773438 22.488281 52.210938 C 22.804688 50.75 23.488281 49.445312 24.464844 48.464844 C 25.445312 47.488281 26.75 46.804688 28.210938 46.488281 C 28.640625 46.398438 29.828125 46.285156 31.359375 46.214844 C 32.890625 46.144531 34.808594 46.097656 36.902344 46.066406 C 41.09375 46 45.996094 46 49.996094 46 Z M 26 51 L 26 55.066406 L 30 55.066406 L 30 77 L 34 77 L 34 55.066406 L 38 55.066406 L 38 51 Z M 52 51 L 52 77 L 56 77 L 56 76.527344 C 56.566406 76.820312 57.195312 77 57.875 77 C 60.152344 77 62 75.152344 62 72.875 L 62 61.625 C 62 59.347656 60.152344 57.5 57.875 57.5 C 57.195312 57.5 56.566406 57.679688 56 57.972656 L 56 51 Z M 69.5 57.5 C 66.460938 57.5 64 59.960938 64 63 L 64 71.5 C 64 74.539062 66.460938 77 69.5 77 C 72.539062 77 75 74.539062 75 71.5 L 75 70 L 71 70 L 71 72.5 C 71 73.328125 70.328125 74 69.5 74 C 68.671875 74 68 73.328125 68 72.5 L 68 68 L 75 68 L 75 63 C 75 59.960938 72.539062 57.5 69.5 57.5 Z M 38 58 L 38 74.0625 C 38 75.683594 39.316406 77 40.9375 77 C 42.707031 77 44.121094 75.847656 45.003906 75 L 45.003906 77 L 49.003906 77 L 49.003906 58 L 45 58 L 45 71.625 C 45 71.625 43.75 73 42.75 73 C 42.335938 73 42 72.664062 42 72.25 L 42 58 Z M 57.1875 61 C 57.636719 61 58 61.363281 58 61.8125 L 58 73.1875 C 58 73.636719 57.636719 74 57.1875 74 C 56.375 74 56 73.375 56 73.375 L 56 61.625 C 56 61.625 56.375 61 57.1875 61 Z M 69.5 61 C 70.328125 61 71 61.671875 71 62.5 L 71 65 L 68 65 L 68 62.5 C 68 61.671875 68.671875 61 69.5 61 Z M 69.5 61 "/>
</g>
</svg>
